<?xml version="1.0" encoding="utf-8"?>
<!-- Generator: Adobe Illustrator 19.0.0, SVG Export Plug-In . SVG Version: 6.00 Build 0)  -->
<!DOCTYPE svg PUBLIC "-//W3C//DTD SVG 1.1//EN" "http://www.w3.org/Graphics/SVG/1.1/DTD/svg11.dtd">
<svg version="1.1" id="Layer_1" xmlns="http://www.w3.org/2000/svg" xmlns:xlink="http://www.w3.org/1999/xlink" x="0px" y="0px"
	 viewBox="0 0 554.8 92.7" style="enable-background:new 0 0 554.8 92.7;" xml:space="preserve">
<style type="text/css">
	.st0{fill:#1E1313;}
	.st1{fill:#261313;}
	.st2{fill:#CC0000;}
	.st3{fill:#AA0000;}
	.st4{fill:#3F1414;}
	.st5{fill:#FFCACA;}
	.st6{fill:#FFFFFF;}
	.st7{font-family:'Raleway-Thin';}
	.st8{font-size:86px;}
</style>
<g id="XMLID_47_">
	<g id="XMLID_42_">
		<g id="XMLID_45_">
			<path id="XMLID_37_" class="st0" d="M154.6,78.3H24.1c-0.3,0-0.6-0.3-0.6-0.6V66.5c0-0.3,0.3-0.6,0.6-0.6h130.5
				c0.3,0,0.6,0.3,0.6,0.6v11.2C155.2,78,154.9,78.3,154.6,78.3z"/>
			<g id="XMLID_23_">
				<path id="XMLID_20_" class="st1" d="M170.1,69.3h-10c-0.3,0-0.5-0.2-0.5-0.5V53.3c0-0.3,0.2-0.5,0.5-0.5h10
					c0.3,0,0.5,0.2,0.5,0.5v15.5C170.7,69.1,170.4,69.3,170.1,69.3z"/>
				<path id="XMLID_21_" class="st1" d="M177.9,65.2h-7.7c-0.3,0-0.5-0.2-0.5-0.5v-5.1c0-0.3,0.2-0.5,0.5-0.5h7.7
					c0.3,0,0.5,0.2,0.5,0.5v5.1C178.4,64.9,178.2,65.2,177.9,65.2z"/>
				<path id="XMLID_24_" class="st1" d="M176.3,73.5h-6.2c-0.7,0-1.3-0.6-1.3-1.3l0,0c0-0.7,0.6-1.3,1.3-1.3h6.2
					c0.7,0,1.3,0.6,1.3,1.3l0,0C177.6,72.9,177,73.5,176.3,73.5z"/>
				<path id="XMLID_22_" class="st1" d="M170.1,73.5L170.1,73.5c-0.7,0-1.3-0.6-1.3-1.3V36.7c0-0.7,0.6-1.3,1.3-1.3l0,0
					c0.7,0,1.3,0.6,1.3,1.3v35.6C171.3,73,170.8,73.5,170.1,73.5z"/>
			</g>
			<g id="XMLID_25_">
				<path id="XMLID_40_" class="st1" d="M8.3,69.3h10c0.3,0,0.5-0.2,0.5-0.5V53.3c0-0.3-0.2-0.5-0.5-0.5h-10c-0.3,0-0.5,0.2-0.5,0.5
					v15.5C7.7,69.1,8,69.3,8.3,69.3z"/>
				<path id="XMLID_39_" class="st1" d="M0.5,65.2h7.7c0.3,0,0.5-0.2,0.5-0.5v-5.1c0-0.3-0.2-0.5-0.5-0.5H0.5C0.2,59,0,59.2,0,59.5
					v5.1C0,64.9,0.2,65.2,0.5,65.2z"/>
				<path id="XMLID_27_" class="st1" d="M2.2,73.5h6.2c0.7,0,1.3-0.6,1.3-1.3l0,0c0-0.7-0.6-1.3-1.3-1.3H2.2c-0.7,0-1.3,0.6-1.3,1.3
					l0,0C0.9,72.9,1.4,73.5,2.2,73.5z"/>
				<path id="XMLID_26_" class="st1" d="M8.4,73.5L8.4,73.5c0.7,0,1.3-0.6,1.3-1.3V36.7c0-0.7-0.6-1.3-1.3-1.3h0
					c-0.7,0-1.3,0.6-1.3,1.3v35.6C7.1,73,7.7,73.5,8.4,73.5z"/>
			</g>
			<g id="XMLID_38_">
				<circle id="XMLID_33_" class="st1" cx="30.7" cy="77.4" r="10.3"/>
				<circle id="XMLID_34_" class="st1" cx="54.9" cy="77.4" r="10.3"/>
				<circle id="XMLID_36_" class="st1" cx="123.9" cy="77.4" r="10.3"/>
				<circle id="XMLID_35_" class="st1" cx="148.1" cy="77.4" r="10.3"/>
			</g>
		</g>
		<rect id="XMLID_4_" x="18.1" y="17.6" class="st2" width="142.1" height="41.4"/>
		<g id="XMLID_11_">
			<path id="XMLID_9_" class="st2" d="M31.4,12.3H18.7c-0.3,0-0.6-0.3-0.6-0.6V4.5c0-0.3,0.3-0.6,0.6-0.6h12.7
				c0.3,0,0.6,0.3,0.6,0.6v7.2C32,12,31.7,12.3,31.4,12.3z"/>
			<path id="XMLID_12_" class="st2" d="M143.6,12.3H95.7c-0.3,0-0.6-0.3-0.6-0.6V4.5c0-0.3,0.3-0.6,0.6-0.6h47.9
				c0.3,0,0.6,0.3,0.6,0.6v7.2C144.2,12,143.9,12.3,143.6,12.3z"/>
			<path id="XMLID_14_" class="st2" d="M84.3,12.3H35.6c-0.3,0-0.6-0.3-0.6-0.6V4.5c0-0.3,0.3-0.6,0.6-0.6h48.8
				c0.3,0,0.6,0.3,0.6,0.6v7.2C84.9,12,84.7,12.3,84.3,12.3z"/>
			<path id="XMLID_13_" class="st2" d="M159.7,12.3h-9c-0.3,0-0.6-0.3-0.6-0.6V4.5c0-0.3,0.3-0.6,0.6-0.6h9c0.3,0,0.6,0.3,0.6,0.6
				v7.2C160.3,12,160,12.3,159.7,12.3z"/>
		</g>
		<g id="XMLID_15_">
			<path id="XMLID_5_" class="st3" d="M18.1,17.6L15.3,15c0,0-0.6-0.2-0.6-1.7s0-2.6,0-2.6h145.6v7H18.1z"/>
			<path id="XMLID_7_" class="st3" d="M18.1,17.6L15.3,15c0,0-0.6-0.2-0.6-1.7v-1.7c0-0.5,0.4-0.9,0.9-0.9h144.7v7H18.1z
				 M160.3,17.6l2.9-2.6c0,0,0.6-0.2,0.6-1.7v-1.7c0-0.5-0.4-0.9-0.9-0.9H18.1v7H160.3z"/>
		</g>
		<path id="XMLID_10_" class="st4" d="M160.8,71.4H18c-0.5,0-1-0.4-1-1V59.9c0-0.5,0.4-1,1-1h142.8c0.5,0,1,0.4,1,1v10.5
			C161.7,70.9,161.3,71.4,160.8,71.4z"/>
		<g id="XMLID_44_">
			<circle id="XMLID_16_" class="st1" cx="68.6" cy="25.4" r="3.4"/>
			<circle id="XMLID_17_" class="st1" cx="82.4" cy="25.4" r="3.4"/>
			<circle id="XMLID_18_" class="st1" cx="96.3" cy="25.4" r="3.4"/>
			<circle id="XMLID_19_" class="st1" cx="110.1" cy="25.4" r="3.4"/>
		</g>
		<g id="XMLID_32_">
			<rect id="XMLID_28_" x="141.3" y="20.4" class="st5" width="6.2" height="12"/>
			<rect id="XMLID_29_" x="133.7" y="20.4" class="st5" width="6.2" height="12"/>
			<rect id="XMLID_31_" x="38.5" y="20.4" class="st5" width="6.2" height="12"/>
			<rect id="XMLID_30_" x="30.9" y="20.4" class="st5" width="6.2" height="12"/>
		</g>
		<rect id="XMLID_41_" x="18.1" y="35.4" class="st3" width="142.1" height="19.8"/>
	</g>
	<text id="XMLID_46_" transform="matrix(1 0 0 1 198.6243 73.5303)" class="st6 st7 st8">BOXCAB</text>
</g>
</svg>
