<svg xmlns="http://www.w3.org/2000/svg" xmlns:xlink="http://www.w3.org/1999/xlink" x="0px" y="0px" width="48px" height="16px" viewBox="0 0 48 16"><g  transform="translate(0, 0)"><polygon data-color="color-2" fill="#585c64" points="8,8 12,4 9,4 9,0 7,0 7,4 4,4 "/>
<path fill="#585c64" d="M15,0h-3v2h2v8H2V2h2V0H1C0.4,0,0,0.4,0,1v14c0,0.6,0.4,1,1,1h14c0.6,0,1-0.4,1-1V1C16,0.4,15.6,0,15,0z"/></g><g  transform="translate(16, 0)"><path fill="#585c64" d="M14,0H2C1.4,0,1,0.4,1,1v14c0,0.6,0.4,1,1,1h12c0.6,0,1-0.4,1-1V1C15,0.4,14.6,0,14,0z M13,14H3V2h10V14z"/>
<rect data-color="color-2" x="4" y="3" fill="#585c64" width="4" height="4"/>
<rect data-color="color-2" x="9" y="4" fill="#585c64" width="3" height="1"/>
<rect data-color="color-2" x="9" y="6" fill="#585c64" width="3" height="1"/>
<rect data-color="color-2" x="4" y="8" fill="#585c64" width="8" height="1"/>
<rect data-color="color-2" x="4" y="10" fill="#585c64" width="8" height="1"/>
<rect data-color="color-2" x="4" y="12" fill="#585c64" width="5" height="1"/></g><g  transform="translate(32, 0)">
<path fill="#585c64" d="M8,0C3.589,0,0,3.589,0,8s3.589,8,8,8s8-3.589,8-8S12.411,0,8,0z M13.91,9H8.677L6.929,4.628L5.071,5.372&#10;&#9;L6.523,9H2.09C2.035,8.674,2,8.341,2,8c0-3.309,2.691-6,6-6s6,2.691,6,6C14,8.341,13.965,8.674,13.91,9z"/>
</g></svg>